<?xml version="1.0" encoding="UTF-8" standalone="no"?>
<!DOCTYPE svg PUBLIC "-//W3C//DTD SVG 1.1//EN"
 "http://www.w3.org/Graphics/SVG/1.1/DTD/svg11.dtd">
<!-- Generated by graphviz version 2.40.1 (20161225.0304)
 -->
<!-- Title: Snakemake Pages: 1 -->
<svg width="567pt" height="1043pt"
 viewBox="0.00 0.00 566.50 1043.00" xmlns="http://www.w3.org/2000/svg" xmlns:xlink="http://www.w3.org/1999/xlink">
<g id="graph0" class="graph" transform="scale(1 1) rotate(0) translate(4 1039)">
<title>Snakemake</title>
<polygon fill="#ffffff" stroke="transparent" points="-4,4 -4,-1039 562.5,-1039 562.5,4 -4,4"/>
<text text-anchor="middle" x="279.25" y="-7.8" font-family="Times,serif" font-size="14.00" fill="#000000">Bitextor Snakemake path chart</text>
<!-- Creepy -->
<g id="node1" class="node">
<title>Creepy</title>
<polygon fill="none" stroke="#000000" points="213.5,-996.5 213.5,-1034.5 269.5,-1034.5 269.5,-996.5 213.5,-996.5"/>
<text text-anchor="middle" x="241.5" y="-1019.3" font-family="Times,serif" font-size="14.00" fill="#000000">Creepy</text>
<text text-anchor="middle" x="241.5" y="-1004.3" font-family="Times,serif" font-size="14.00" fill="#000000">&#45;url</text>
</g>
<!-- LETT -->
<g id="node3" class="node">
<title>LETT</title>
<polygon fill="none" stroke="#000000" points="252.5,-905.5 252.5,-943.5 306.5,-943.5 306.5,-905.5 252.5,-905.5"/>
<text text-anchor="middle" x="279.5" y="-928.3" font-family="Times,serif" font-size="14.00" fill="#000000">LETT</text>
<text text-anchor="middle" x="279.5" y="-913.3" font-family="Times,serif" font-size="14.00" fill="#000000">&#45;boiler</text>
</g>
<!-- Creepy&#45;&gt;LETT -->
<g id="edge1" class="edge">
<title>Creepy&#45;&gt;LETT</title>
<path fill="none" stroke="#000000" stroke-dasharray="5,2" d="M249.5588,-996.2012C254.7984,-983.6538 261.722,-967.0737 267.5914,-953.018"/>
<polygon fill="#000000" stroke="#000000" points="270.8291,-954.3474 271.4528,-943.7709 264.3697,-951.65 270.8291,-954.3474"/>
</g>
<!-- Httrack -->
<g id="node2" class="node">
<title>Httrack</title>
<polygon fill="none" stroke="#000000" points="288,-996.5 288,-1034.5 345,-1034.5 345,-996.5 288,-996.5"/>
<text text-anchor="middle" x="316.5" y="-1019.3" font-family="Times,serif" font-size="14.00" fill="#000000">Httrack</text>
<text text-anchor="middle" x="316.5" y="-1004.3" font-family="Times,serif" font-size="14.00" fill="#000000">&#45;url</text>
</g>
<!-- Httrack&#45;&gt;LETT -->
<g id="edge2" class="edge">
<title>Httrack&#45;&gt;LETT</title>
<path fill="none" stroke="#000000" stroke-dasharray="5,2" d="M308.6533,-996.2012C303.6006,-983.7744 296.9397,-967.3922 291.2604,-953.4241"/>
<polygon fill="#000000" stroke="#000000" points="294.3442,-951.7162 287.3354,-943.7709 287.8598,-954.3528 294.3442,-951.7162"/>
</g>
<!-- DocalignDict -->
<g id="node4" class="node">
<title>DocalignDict</title>
<polygon fill="none" stroke="#000000" points="58,-718 58,-786 151,-786 151,-718 58,-718"/>
<text text-anchor="middle" x="104.5" y="-770.8" font-family="Times,serif" font-size="14.00" fill="#000000">Docalign Dict</text>
<text text-anchor="middle" x="104.5" y="-755.8" font-family="Times,serif" font-size="14.00" fill="#000000">&#45;dic</text>
<text text-anchor="middle" x="104.5" y="-740.8" font-family="Times,serif" font-size="14.00" fill="#000000">&#45;wordtok1</text>
<text text-anchor="middle" x="104.5" y="-725.8" font-family="Times,serif" font-size="14.00" fill="#000000">&#45;wordtok2</text>
</g>
<!-- LETT&#45;&gt;DocalignDict -->
<g id="edge3" class="edge">
<title>LETT&#45;&gt;DocalignDict</title>
<path fill="none" stroke="#000000" d="M252.4197,-909.4113C226.478,-894.0465 187.278,-868.3588 159.5,-839 147.2955,-826.101 136.2784,-810.1067 127.366,-795.3638"/>
<polygon fill="#000000" stroke="#000000" points="130.1767,-793.238 122.0968,-786.3848 124.1395,-796.7809 130.1767,-793.238"/>
</g>
<!-- DocalignSMT -->
<g id="node5" class="node">
<title>DocalignSMT</title>
<polygon fill="none" stroke="#000000" points="460.5,-710.5 460.5,-793.5 558.5,-793.5 558.5,-710.5 460.5,-710.5"/>
<text text-anchor="middle" x="509.5" y="-778.3" font-family="Times,serif" font-size="14.00" fill="#000000">Docalign SMT</text>
<text text-anchor="middle" x="509.5" y="-763.3" font-family="Times,serif" font-size="14.00" fill="#000000">&#45;doc_threshold</text>
<text text-anchor="middle" x="509.5" y="-748.3" font-family="Times,serif" font-size="14.00" fill="#000000">&#45;wordtok1</text>
<text text-anchor="middle" x="509.5" y="-733.3" font-family="Times,serif" font-size="14.00" fill="#000000">&#45;mosesdir</text>
<text text-anchor="middle" x="509.5" y="-718.3" font-family="Times,serif" font-size="14.00" fill="#000000">&#45;model</text>
</g>
<!-- LETT&#45;&gt;DocalignSMT -->
<g id="edge4" class="edge">
<title>LETT&#45;&gt;DocalignSMT</title>
<path fill="none" stroke="#000000" d="M302.7588,-905.3355C322.1873,-890.2108 351.1861,-869.6226 379.5,-857 409.6266,-843.5692 424.5377,-858.0009 451.5,-839 464.7677,-829.65 475.8428,-816.2181 484.6384,-802.6963"/>
<polygon fill="#000000" stroke="#000000" points="487.8286,-804.1904 490.0894,-793.8396 481.8672,-800.5214 487.8286,-804.1904"/>
</g>
<!-- DocalignNMT -->
<g id="node6" class="node">
<title>DocalignNMT</title>
<polygon fill="none" stroke="#000000" points="324.5,-665.5 324.5,-838.5 442.5,-838.5 442.5,-665.5 324.5,-665.5"/>
<text text-anchor="middle" x="383.5" y="-823.3" font-family="Times,serif" font-size="14.00" fill="#000000">Docalign NMT</text>
<text text-anchor="middle" x="383.5" y="-808.3" font-family="Times,serif" font-size="14.00" fill="#000000">&#45;doc_threshold</text>
<text text-anchor="middle" x="383.5" y="-793.3" font-family="Times,serif" font-size="14.00" fill="#000000">&#45;wordtok1</text>
<text text-anchor="middle" x="383.5" y="-778.3" font-family="Times,serif" font-size="14.00" fill="#000000">&#45;mariandir</text>
<text text-anchor="middle" x="383.5" y="-763.3" font-family="Times,serif" font-size="14.00" fill="#000000">&#45;mosesdir</text>
<text text-anchor="middle" x="383.5" y="-748.3" font-family="Times,serif" font-size="14.00" fill="#000000">&#45;subword_nmt_dir</text>
<text text-anchor="middle" x="383.5" y="-733.3" font-family="Times,serif" font-size="14.00" fill="#000000">&#45;detok2</text>
<text text-anchor="middle" x="383.5" y="-718.3" font-family="Times,serif" font-size="14.00" fill="#000000">&#45;gpuid</text>
<text text-anchor="middle" x="383.5" y="-703.3" font-family="Times,serif" font-size="14.00" fill="#000000">&#45;marian_args</text>
<text text-anchor="middle" x="383.5" y="-688.3" font-family="Times,serif" font-size="14.00" fill="#000000">&#45;wordtok1</text>
<text text-anchor="middle" x="383.5" y="-673.3" font-family="Times,serif" font-size="14.00" fill="#000000">&#45;wordtok2</text>
</g>
<!-- LETT&#45;&gt;DocalignNMT -->
<g id="edge5" class="edge">
<title>LETT&#45;&gt;DocalignNMT</title>
<path fill="none" stroke="#000000" d="M288.4225,-905.2605C294.9543,-891.5739 304.2561,-872.8747 313.5,-857 315.3742,-853.7814 317.3081,-850.5273 319.2857,-847.2565"/>
<polygon fill="#000000" stroke="#000000" points="322.3668,-848.9271 324.6109,-838.5727 316.3995,-845.2677 322.3668,-848.9271"/>
</g>
<!-- DocalignCustomMT -->
<g id="node7" class="node">
<title>DocalignCustomMT</title>
<polygon fill="none" stroke="#000000" points="169,-718 169,-786 306,-786 306,-718 169,-718"/>
<text text-anchor="middle" x="237.5" y="-770.8" font-family="Times,serif" font-size="14.00" fill="#000000">Docalign Custom MT</text>
<text text-anchor="middle" x="237.5" y="-755.8" font-family="Times,serif" font-size="14.00" fill="#000000">&#45;doc_threshold</text>
<text text-anchor="middle" x="237.5" y="-740.8" font-family="Times,serif" font-size="14.00" fill="#000000">&#45;mt_command</text>
<text text-anchor="middle" x="237.5" y="-725.8" font-family="Times,serif" font-size="14.00" fill="#000000">&#45;wordtok1</text>
</g>
<!-- LETT&#45;&gt;DocalignCustomMT -->
<g id="edge6" class="edge">
<title>LETT&#45;&gt;DocalignCustomMT</title>
<path fill="none" stroke="#000000" d="M274.8448,-905.3804C268.4688,-879.1933 256.832,-831.3994 248.2369,-796.0979"/>
<polygon fill="#000000" stroke="#000000" points="251.5548,-794.93 245.7884,-786.0418 244.7535,-796.586 251.5548,-794.93"/>
</g>
<!-- Docalign -->
<g id="node11" class="node">
<title>Docalign</title>
<polygon fill="none" stroke="#000000" stroke-dasharray="5,2" points="213.5,-577.5 213.5,-613.5 279.5,-613.5 279.5,-577.5 213.5,-577.5"/>
<text text-anchor="middle" x="246.5" y="-591.8" font-family="Times,serif" font-size="14.00" fill="#000000">Docalign</text>
</g>
<!-- DocalignDict&#45;&gt;Docalign -->
<g id="edge11" class="edge">
<title>DocalignDict&#45;&gt;Docalign</title>
<path fill="none" stroke="#000000" d="M122.464,-717.9531C132.2172,-701.0899 145.1962,-680.9753 159.5,-665 174.6542,-648.0749 194.2284,-632.0434 210.9712,-619.6515"/>
<polygon fill="#000000" stroke="#000000" points="213.3892,-622.2216 219.4302,-613.5177 209.2799,-616.5546 213.3892,-622.2216"/>
</g>
<!-- DocalignSMT&#45;&gt;Docalign -->
<g id="edge12" class="edge">
<title>DocalignSMT&#45;&gt;Docalign</title>
<path fill="none" stroke="#000000" d="M489.3501,-710.3597C479.8023,-694.2898 467.0499,-676.94 451.5,-665 438.3195,-654.8793 345.487,-625.5653 289.3639,-608.4122"/>
<polygon fill="#000000" stroke="#000000" points="290.2629,-605.0273 279.6769,-605.4608 288.2227,-611.7234 290.2629,-605.0273"/>
</g>
<!-- DocalignMT -->
<g id="node12" class="node">
<title>DocalignMT</title>
<polygon fill="none" stroke="#000000" stroke-dasharray="5,2" points="322,-577.5 322,-613.5 413,-613.5 413,-577.5 322,-577.5"/>
<text text-anchor="middle" x="367.5" y="-591.8" font-family="Times,serif" font-size="14.00" fill="#000000">Docalign MT</text>
</g>
<!-- DocalignSMT&#45;&gt;DocalignMT -->
<g id="edge15" class="edge">
<title>DocalignSMT&#45;&gt;DocalignMT</title>
<path fill="none" stroke="#000000" d="M504.4709,-710.2658C499.3641,-684.6969 489.0995,-652.9642 468.5,-632 456.1563,-619.4377 439.1706,-611.1766 422.6492,-605.7528"/>
<polygon fill="#000000" stroke="#000000" points="423.5972,-602.3832 413.0139,-602.8761 421.5946,-609.0907 423.5972,-602.3832"/>
</g>
<!-- DocalignNMT&#45;&gt;Docalign -->
<g id="edge13" class="edge">
<title>DocalignNMT&#45;&gt;Docalign</title>
<path fill="none" stroke="#000000" d="M324.2947,-675.1997C321.3569,-671.7225 318.416,-668.3073 315.5,-665 302.0584,-649.7547 286.125,-633.5931 272.9577,-620.695"/>
<polygon fill="#000000" stroke="#000000" points="275.175,-617.9692 265.5644,-613.5095 270.2962,-622.989 275.175,-617.9692"/>
</g>
<!-- DocalignNMT&#45;&gt;DocalignMT -->
<g id="edge16" class="edge">
<title>DocalignNMT&#45;&gt;DocalignMT</title>
<path fill="none" stroke="#000000" d="M374.611,-665.0546C373.0801,-650.08 371.5931,-635.5355 370.3781,-623.6514"/>
<polygon fill="#000000" stroke="#000000" points="373.8443,-623.1414 369.3453,-613.5492 366.8806,-623.8534 373.8443,-623.1414"/>
</g>
<!-- DocalignCustomMT&#45;&gt;Docalign -->
<g id="edge14" class="edge">
<title>DocalignCustomMT&#45;&gt;Docalign</title>
<path fill="none" stroke="#000000" d="M239.4751,-717.6554C241.0941,-689.5024 243.3578,-650.1385 244.8737,-623.7801"/>
<polygon fill="#000000" stroke="#000000" points="248.374,-623.8737 245.454,-613.6893 241.3855,-623.4718 248.374,-623.8737"/>
</g>
<!-- DocalignCustomMT&#45;&gt;DocalignMT -->
<g id="edge17" class="edge">
<title>DocalignCustomMT&#45;&gt;DocalignMT</title>
<path fill="none" stroke="#000000" d="M266.0291,-717.6554C290.0386,-688.7516 323.8639,-648.0311 345.7367,-621.6996"/>
<polygon fill="#000000" stroke="#000000" points="348.6932,-623.618 352.3907,-613.6893 343.3086,-619.1451 348.6932,-623.618"/>
</g>
<!-- TrainSMT -->
<g id="node8" class="node">
<title>TrainSMT</title>
<polygon fill="none" stroke="#000000" points="469.5,-890.5 469.5,-958.5 549.5,-958.5 549.5,-890.5 469.5,-890.5"/>
<text text-anchor="middle" x="509.5" y="-943.3" font-family="Times,serif" font-size="14.00" fill="#000000">Train SMT</text>
<text text-anchor="middle" x="509.5" y="-928.3" font-family="Times,serif" font-size="14.00" fill="#000000">&#45;dev corpus</text>
<text text-anchor="middle" x="509.5" y="-913.3" font-family="Times,serif" font-size="14.00" fill="#000000">&#45;test corpus</text>
<text text-anchor="middle" x="509.5" y="-898.3" font-family="Times,serif" font-size="14.00" fill="#000000">&#45;crawl</text>
</g>
<!-- TrainSMT&#45;&gt;DocalignSMT -->
<g id="edge9" class="edge">
<title>TrainSMT&#45;&gt;DocalignSMT</title>
<path fill="none" stroke="#000000" stroke-dasharray="1,5" d="M509.5,-890.4196C509.5,-865.6718 509.5,-831.7452 509.5,-803.6743"/>
<polygon fill="#000000" stroke="#000000" points="513.0001,-803.6251 509.5,-793.6251 506.0001,-803.6252 513.0001,-803.6251"/>
<text text-anchor="middle" x="529.5" y="-860.8" font-family="Times,serif" font-size="14.00" fill="#000000">!model</text>
</g>
<!-- TrainNMT -->
<g id="node9" class="node">
<title>TrainNMT</title>
<polygon fill="none" stroke="#000000" points="340.5,-890.5 340.5,-958.5 426.5,-958.5 426.5,-890.5 340.5,-890.5"/>
<text text-anchor="middle" x="383.5" y="-943.3" font-family="Times,serif" font-size="14.00" fill="#000000">Train NMT</text>
<text text-anchor="middle" x="383.5" y="-928.3" font-family="Times,serif" font-size="14.00" fill="#000000">&#45;train corpus</text>
<text text-anchor="middle" x="383.5" y="-913.3" font-family="Times,serif" font-size="14.00" fill="#000000">&#45;test corpus</text>
<text text-anchor="middle" x="383.5" y="-898.3" font-family="Times,serif" font-size="14.00" fill="#000000">&#45;dev corpus</text>
</g>
<!-- TrainNMT&#45;&gt;DocalignNMT -->
<g id="edge10" class="edge">
<title>TrainNMT&#45;&gt;DocalignNMT</title>
<path fill="none" stroke="#000000" stroke-dasharray="1,5" d="M383.5,-890.4196C383.5,-878.2137 383.5,-863.775 383.5,-848.9072"/>
<polygon fill="#000000" stroke="#000000" points="387.0001,-848.5678 383.5,-838.5678 380.0001,-848.5679 387.0001,-848.5678"/>
<text text-anchor="middle" x="403.5" y="-860.8" font-family="Times,serif" font-size="14.00" fill="#000000">!model</text>
</g>
<!-- SymmetriseDic -->
<g id="node10" class="node">
<title>SymmetriseDic</title>
<polygon fill="none" stroke="#000000" points="0,-905.5 0,-943.5 113,-943.5 113,-905.5 0,-905.5"/>
<text text-anchor="middle" x="56.5" y="-928.3" font-family="Times,serif" font-size="14.00" fill="#000000">Symmetrise Dict.</text>
<text text-anchor="middle" x="56.5" y="-913.3" font-family="Times,serif" font-size="14.00" fill="#000000">&#45;corpus_dict</text>
</g>
<!-- SymmetriseDic&#45;&gt;DocalignDict -->
<g id="edge7" class="edge">
<title>SymmetriseDic&#45;&gt;DocalignDict</title>
<path fill="none" stroke="#000000" stroke-dasharray="1,5" d="M61.8202,-905.3804C69.1071,-879.1933 82.4063,-831.3994 92.2293,-796.0979"/>
<polygon fill="#000000" stroke="#000000" points="95.7186,-796.6141 95.0275,-786.0418 88.9748,-794.7375 95.7186,-796.6141"/>
<text text-anchor="middle" x="88" y="-860.8" font-family="Times,serif" font-size="14.00" fill="#000000">!dict</text>
</g>
<!-- Hunalign -->
<g id="node13" class="node">
<title>Hunalign</title>
<polygon fill="none" stroke="#000000" points="210,-441.5 210,-539.5 283,-539.5 283,-441.5 210,-441.5"/>
<text text-anchor="middle" x="246.5" y="-524.3" font-family="Times,serif" font-size="14.00" fill="#000000">Hunalign</text>
<text text-anchor="middle" x="246.5" y="-509.3" font-family="Times,serif" font-size="14.00" fill="#000000">&#45;dict</text>
<text text-anchor="middle" x="246.5" y="-494.3" font-family="Times,serif" font-size="14.00" fill="#000000">&#45;wordtok1</text>
<text text-anchor="middle" x="246.5" y="-479.3" font-family="Times,serif" font-size="14.00" fill="#000000">&#45;wordtok2</text>
<text text-anchor="middle" x="246.5" y="-464.3" font-family="Times,serif" font-size="14.00" fill="#000000">&#45;senttok1</text>
<text text-anchor="middle" x="246.5" y="-449.3" font-family="Times,serif" font-size="14.00" fill="#000000">&#45;senttok2</text>
</g>
<!-- SymmetriseDic&#45;&gt;Hunalign -->
<g id="edge8" class="edge">
<title>SymmetriseDic&#45;&gt;Hunalign</title>
<path fill="none" stroke="#000000" stroke-dasharray="1,5" d="M50.4839,-905.4786C37.5397,-861.0142 11.1179,-747.7732 48.5,-665 79.6583,-596.0079 153.0684,-543.3863 201.2157,-514.7409"/>
<polygon fill="#000000" stroke="#000000" points="203.025,-517.7375 209.8959,-509.6727 199.4954,-511.6925 203.025,-517.7375"/>
<text text-anchor="middle" x="80" y="-635.8" font-family="Times,serif" font-size="14.00" fill="#000000">!dict</text>
</g>
<!-- Docalign&#45;&gt;Hunalign -->
<g id="edge18" class="edge">
<title>Docalign&#45;&gt;Hunalign</title>
<path fill="none" stroke="#000000" d="M246.5,-577.2104C246.5,-569.3664 246.5,-559.7178 246.5,-549.739"/>
<polygon fill="#000000" stroke="#000000" points="250.0001,-549.7046 246.5,-539.7047 243.0001,-549.7047 250.0001,-549.7046"/>
</g>
<!-- Bleualign -->
<g id="node14" class="node">
<title>Bleualign</title>
<polygon fill="none" stroke="#000000" points="305,-471.5 305,-509.5 374,-509.5 374,-471.5 305,-471.5"/>
<text text-anchor="middle" x="339.5" y="-494.3" font-family="Times,serif" font-size="14.00" fill="#000000">Bleualign</text>
<text text-anchor="middle" x="339.5" y="-479.3" font-family="Times,serif" font-size="14.00" fill="#000000">&#45;matches</text>
</g>
<!-- DocalignMT&#45;&gt;Bleualign -->
<g id="edge19" class="edge">
<title>DocalignMT&#45;&gt;Bleualign</title>
<path fill="none" stroke="#000000" d="M362.6228,-577.2104C358.3659,-561.2471 352.1159,-537.8095 347.1866,-519.3249"/>
<polygon fill="#000000" stroke="#000000" points="350.5636,-518.4047 344.6051,-509.6441 343.8,-520.2083 350.5636,-518.4047"/>
</g>
<!-- Segclean -->
<g id="node15" class="node">
<title>Segclean</title>
<polygon fill="none" stroke="#000000" points="248.5,-350.5 248.5,-403.5 348.5,-403.5 348.5,-350.5 248.5,-350.5"/>
<text text-anchor="middle" x="298.5" y="-388.3" font-family="Times,serif" font-size="14.00" fill="#000000">Segment Clean</text>
<text text-anchor="middle" x="298.5" y="-373.3" font-family="Times,serif" font-size="14.00" fill="#000000">&#45;min_quality</text>
<text text-anchor="middle" x="298.5" y="-358.3" font-family="Times,serif" font-size="14.00" fill="#000000">&#45;max_lines</text>
</g>
<!-- Hunalign&#45;&gt;Segclean -->
<g id="edge21" class="edge">
<title>Hunalign&#45;&gt;Segclean</title>
<path fill="none" stroke="#000000" stroke-dasharray="5,2" d="M269.0055,-441.3774C273.4059,-431.7728 277.9422,-421.8714 282.098,-412.8006"/>
<polygon fill="#000000" stroke="#000000" points="285.286,-414.245 286.2693,-403.6959 278.9221,-411.3293 285.286,-414.245"/>
</g>
<!-- Bleualign&#45;&gt;Segclean -->
<g id="edge22" class="edge">
<title>Bleualign&#45;&gt;Segclean</title>
<path fill="none" stroke="#000000" stroke-dasharray="5,2" d="M332.5449,-471.2463C326.7988,-455.3394 318.4828,-432.3183 311.5083,-413.0108"/>
<polygon fill="#000000" stroke="#000000" points="314.7964,-411.8111 308.107,-403.595 308.2127,-414.1893 314.7964,-411.8111"/>
</g>
<!-- Bicleaner -->
<g id="node16" class="node">
<title>Bicleaner</title>
<polygon fill="none" stroke="#000000" points="260,-245.5 260,-298.5 331,-298.5 331,-245.5 260,-245.5"/>
<text text-anchor="middle" x="295.5" y="-283.3" font-family="Times,serif" font-size="14.00" fill="#000000">Bicleaner</text>
<text text-anchor="middle" x="295.5" y="-268.3" font-family="Times,serif" font-size="14.00" fill="#000000">&#45;config</text>
<text text-anchor="middle" x="295.5" y="-253.3" font-family="Times,serif" font-size="14.00" fill="#000000">&#45;threshold</text>
</g>
<!-- Segclean&#45;&gt;Bicleaner -->
<g id="edge28" class="edge">
<title>Segclean&#45;&gt;Bicleaner</title>
<path fill="none" stroke="#000000" d="M297.7352,-350.2324C297.3755,-337.6438 296.9409,-322.4327 296.5509,-308.7831"/>
<polygon fill="#000000" stroke="#000000" points="300.0477,-308.6147 296.2634,-298.7187 293.0505,-308.8146 300.0477,-308.6147"/>
</g>
<!-- ELRC -->
<g id="node18" class="node">
<title>ELRC</title>
<polygon fill="none" stroke="#000000" points="297.5,-171.5 297.5,-207.5 351.5,-207.5 351.5,-171.5 297.5,-171.5"/>
<text text-anchor="middle" x="324.5" y="-185.8" font-family="Times,serif" font-size="14.00" fill="#000000">ELRC</text>
</g>
<!-- Segclean&#45;&gt;ELRC -->
<g id="edge26" class="edge">
<title>Segclean&#45;&gt;ELRC</title>
<path fill="none" stroke="#000000" stroke-dasharray="5,2" d="M317.2051,-350.2148C326.1592,-335.7619 335.9129,-317.1943 340.5,-299 347.3929,-271.66 341.1245,-239.6803 334.5196,-217.3656"/>
<polygon fill="#000000" stroke="#000000" points="337.7655,-216.0224 331.4071,-207.5476 331.0928,-218.1378 337.7655,-216.0224"/>
</g>
<!-- Preproc -->
<g id="node19" class="node">
<title>Preproc</title>
<polygon fill="none" stroke="#000000" stroke-dasharray="5,2" points="240,-97.5 240,-133.5 299,-133.5 299,-97.5 240,-97.5"/>
<text text-anchor="middle" x="269.5" y="-111.8" font-family="Times,serif" font-size="14.00" fill="#000000">Preproc</text>
</g>
<!-- Segclean&#45;&gt;Preproc -->
<g id="edge23" class="edge">
<title>Segclean&#45;&gt;Preproc</title>
<path fill="none" stroke="#000000" stroke-dasharray="5,2" d="M276.9046,-350.2482C266.7497,-335.9501 255.7397,-317.5122 250.5,-299 235.3367,-245.4272 249.5284,-179.9965 260.1996,-143.5161"/>
<polygon fill="#000000" stroke="#000000" points="263.6548,-144.1845 263.2252,-133.5984 256.9595,-142.1419 263.6548,-144.1845"/>
</g>
<!-- Bicleaner&#45;&gt;ELRC -->
<g id="edge27" class="edge">
<title>Bicleaner&#45;&gt;ELRC</title>
<path fill="none" stroke="#000000" stroke-dasharray="5,2" d="M304.8354,-245.4424C307.9874,-236.4756 311.5138,-226.4435 314.7006,-217.3776"/>
<polygon fill="#000000" stroke="#000000" points="318.1018,-218.2556 318.1162,-207.6608 311.498,-215.9342 318.1018,-218.2556"/>
</g>
<!-- Bicleaner&#45;&gt;Preproc -->
<g id="edge24" class="edge">
<title>Bicleaner&#45;&gt;Preproc</title>
<path fill="none" stroke="#000000" stroke-dasharray="5,2" d="M291.0895,-245.4519C286.3926,-217.1804 278.9881,-172.611 274.1878,-143.7172"/>
<polygon fill="#000000" stroke="#000000" points="277.6386,-143.1317 272.547,-133.8405 270.7333,-144.279 277.6386,-143.1317"/>
</g>
<!-- BicleanerTrain -->
<g id="node17" class="node">
<title>BicleanerTrain</title>
<polygon fill="none" stroke="#000000" points="117,-358 117,-396 230,-396 230,-358 117,-358"/>
<text text-anchor="middle" x="173.5" y="-380.8" font-family="Times,serif" font-size="14.00" fill="#000000">Bicleaner Train</text>
<text text-anchor="middle" x="173.5" y="-365.8" font-family="Times,serif" font-size="14.00" fill="#000000">&#45;corpus_bicleaner</text>
</g>
<!-- BicleanerTrain&#45;&gt;Bicleaner -->
<g id="edge20" class="edge">
<title>BicleanerTrain&#45;&gt;Bicleaner</title>
<path fill="none" stroke="#000000" stroke-dasharray="1,5" d="M195.5933,-357.9853C212.5667,-343.377 236.4377,-322.8323 256.5899,-305.4882"/>
<polygon fill="#000000" stroke="#000000" points="259.0974,-307.9479 264.3936,-298.7719 254.5311,-302.6424 259.0974,-307.9479"/>
<text text-anchor="middle" x="262.5" y="-320.8" font-family="Times,serif" font-size="14.00" fill="#000000">!config</text>
</g>
<!-- ELRC&#45;&gt;Preproc -->
<g id="edge25" class="edge">
<title>ELRC&#45;&gt;Preproc</title>
<path fill="none" stroke="#000000" stroke-dasharray="5,2" d="M310.9045,-171.2079C304.3107,-162.3363 296.2697,-151.5174 289.0339,-141.782"/>
<polygon fill="#000000" stroke="#000000" points="291.7135,-139.5199 282.9391,-133.5817 286.0953,-143.6955 291.7135,-139.5199"/>
</g>
<!-- Sents -->
<g id="node20" class="node">
<title>Sents</title>
<path fill="none" stroke="#000000" d="M182.5,-23.5C182.5,-23.5 212.5,-23.5 212.5,-23.5 218.5,-23.5 224.5,-29.5 224.5,-35.5 224.5,-35.5 224.5,-47.5 224.5,-47.5 224.5,-53.5 218.5,-59.5 212.5,-59.5 212.5,-59.5 182.5,-59.5 182.5,-59.5 176.5,-59.5 170.5,-53.5 170.5,-47.5 170.5,-47.5 170.5,-35.5 170.5,-35.5 170.5,-29.5 176.5,-23.5 182.5,-23.5"/>
<text text-anchor="middle" x="197.5" y="-37.8" font-family="Times,serif" font-size="14.00" fill="#000000">Sents</text>
</g>
<!-- Preproc&#45;&gt;Sents -->
<g id="edge29" class="edge">
<title>Preproc&#45;&gt;Sents</title>
<path fill="none" stroke="#000000" d="M251.7022,-97.2079C242.8088,-88.0674 231.9042,-76.8599 222.2135,-66.9"/>
<polygon fill="#000000" stroke="#000000" points="224.5752,-64.3083 215.093,-59.5817 219.5581,-69.1898 224.5752,-64.3083"/>
</g>
<!-- TMX -->
<g id="node21" class="node">
<title>TMX</title>
<path fill="none" stroke="#000000" d="M254.5,-23.5C254.5,-23.5 284.5,-23.5 284.5,-23.5 290.5,-23.5 296.5,-29.5 296.5,-35.5 296.5,-35.5 296.5,-47.5 296.5,-47.5 296.5,-53.5 290.5,-59.5 284.5,-59.5 284.5,-59.5 254.5,-59.5 254.5,-59.5 248.5,-59.5 242.5,-53.5 242.5,-47.5 242.5,-47.5 242.5,-35.5 242.5,-35.5 242.5,-29.5 248.5,-23.5 254.5,-23.5"/>
<text text-anchor="middle" x="269.5" y="-37.8" font-family="Times,serif" font-size="14.00" fill="#000000">TMX</text>
</g>
<!-- Preproc&#45;&gt;TMX -->
<g id="edge30" class="edge">
<title>Preproc&#45;&gt;TMX</title>
<path fill="none" stroke="#000000" d="M269.5,-97.2079C269.5,-88.9635 269.5,-79.0376 269.5,-69.8622"/>
<polygon fill="#000000" stroke="#000000" points="273.0001,-69.5817 269.5,-59.5817 266.0001,-69.5818 273.0001,-69.5817"/>
</g>
<!-- DedupTMX -->
<g id="node22" class="node">
<title>DedupTMX</title>
<path fill="none" stroke="#000000" d="M327,-23.5C327,-23.5 386,-23.5 386,-23.5 392,-23.5 398,-29.5 398,-35.5 398,-35.5 398,-47.5 398,-47.5 398,-53.5 392,-59.5 386,-59.5 386,-59.5 327,-59.5 327,-59.5 321,-59.5 315,-53.5 315,-47.5 315,-47.5 315,-35.5 315,-35.5 315,-29.5 321,-23.5 327,-23.5"/>
<text text-anchor="middle" x="356.5" y="-37.8" font-family="Times,serif" font-size="14.00" fill="#000000">DedupTMX</text>
</g>
<!-- Preproc&#45;&gt;DedupTMX -->
<g id="edge31" class="edge">
<title>Preproc&#45;&gt;DedupTMX</title>
<path fill="none" stroke="#000000" d="M291.0056,-97.2079C301.9625,-87.8882 315.4459,-76.4196 327.3249,-66.3156"/>
<polygon fill="#000000" stroke="#000000" points="329.8922,-68.7268 335.2418,-59.5817 325.3568,-63.3947 329.8922,-68.7268"/>
</g>
</g>
</svg>
