<?xml version="1.0" encoding="UTF-8" standalone="no"?>
<!DOCTYPE svg PUBLIC "-//W3C//DTD SVG 1.1//EN"
 "http://www.w3.org/Graphics/SVG/1.1/DTD/svg11.dtd">
<!-- Generated by graphviz version 2.40.1 (20161225.0304)
 -->
<!-- Title: Snakemake Pages: 1 -->
<svg width="775pt" height="1233pt"
 viewBox="0.00 0.00 775.20 1233.07" xmlns="http://www.w3.org/2000/svg" xmlns:xlink="http://www.w3.org/1999/xlink">
<g id="graph0" class="graph" transform="scale(1 1) rotate(0) translate(4 1229.0652)">
<title>Snakemake</title>
<polygon fill="#ffffff" stroke="transparent" points="-4,4 -4,-1229.0652 771.1995,-1229.0652 771.1995,4 -4,4"/>
<text text-anchor="middle" x="383.5998" y="-7.8" font-family="Times,serif" font-size="14.00" fill="#000000">Bitextor Snakemake path chart</text>
<!-- Creepy -->
<g id="node1" class="node">
<title>Creepy</title>
<ellipse fill="none" stroke="#000000" cx="245.2965" cy="-1198.1951" rx="39.6962" ry="26.7407"/>
<text text-anchor="middle" x="245.2965" y="-1201.9951" font-family="Times,serif" font-size="14.00" fill="#000000">Creepy</text>
<text text-anchor="middle" x="245.2965" y="-1186.9951" font-family="Times,serif" font-size="14.00" fill="#000000">&#45;url</text>
</g>
<!-- LETT -->
<g id="node3" class="node">
<title>LETT</title>
<ellipse fill="none" stroke="#000000" cx="294.2965" cy="-1086.2418" rx="37.4533" ry="26.7407"/>
<text text-anchor="middle" x="294.2965" y="-1090.0418" font-family="Times,serif" font-size="14.00" fill="#000000">LETT</text>
<text text-anchor="middle" x="294.2965" y="-1075.0418" font-family="Times,serif" font-size="14.00" fill="#000000">&#45;boiler</text>
</g>
<!-- Creepy&#45;&gt;LETT -->
<g id="edge1" class="edge">
<title>Creepy&#45;&gt;LETT</title>
<path fill="none" stroke="#000000" stroke-dasharray="5,2" d="M256.6612,-1172.2294C263.2785,-1157.1103 271.711,-1137.8442 278.916,-1121.3825"/>
<polygon fill="#000000" stroke="#000000" points="282.19,-1122.631 282.9933,-1112.0667 275.7774,-1119.8243 282.19,-1122.631"/>
</g>
<!-- Httrack -->
<g id="node2" class="node">
<title>Httrack</title>
<ellipse fill="none" stroke="#000000" cx="343.2965" cy="-1198.1951" rx="40.1111" ry="26.7407"/>
<text text-anchor="middle" x="343.2965" y="-1201.9951" font-family="Times,serif" font-size="14.00" fill="#000000">Httrack</text>
<text text-anchor="middle" x="343.2965" y="-1186.9951" font-family="Times,serif" font-size="14.00" fill="#000000">&#45;url</text>
</g>
<!-- Httrack&#45;&gt;LETT -->
<g id="edge2" class="edge">
<title>Httrack&#45;&gt;LETT</title>
<path fill="none" stroke="#000000" stroke-dasharray="5,2" d="M331.9317,-1172.2294C325.3144,-1157.1103 316.882,-1137.8442 309.6769,-1121.3825"/>
<polygon fill="#000000" stroke="#000000" points="312.8156,-1119.8243 305.5996,-1112.0667 306.4029,-1122.631 312.8156,-1119.8243"/>
</g>
<!-- DocalignDict -->
<g id="node4" class="node">
<title>DocalignDict</title>
<ellipse fill="none" stroke="#000000" cx="618.2965" cy="-864.829" rx="65.5227" ry="48.1667"/>
<text text-anchor="middle" x="618.2965" y="-883.629" font-family="Times,serif" font-size="14.00" fill="#000000">Docalign Dict</text>
<text text-anchor="middle" x="618.2965" y="-868.629" font-family="Times,serif" font-size="14.00" fill="#000000">&#45;dic</text>
<text text-anchor="middle" x="618.2965" y="-853.629" font-family="Times,serif" font-size="14.00" fill="#000000">&#45;wordtok1</text>
<text text-anchor="middle" x="618.2965" y="-838.629" font-family="Times,serif" font-size="14.00" fill="#000000">&#45;wordtok2</text>
</g>
<!-- LETT&#45;&gt;DocalignDict -->
<g id="edge3" class="edge">
<title>LETT&#45;&gt;DocalignDict</title>
<path fill="none" stroke="#000000" d="M321.7408,-1067.8198C338.3142,-1057.5411 360.2409,-1045.3882 381.2965,-1038.1585 429.8106,-1021.5005 447.6506,-1039.1582 495.2965,-1020.1585 519.3437,-1010.5692 525.4753,-1005.9369 543.2965,-987.1585 562.2202,-967.2184 578.7654,-941.7387 591.4663,-919.2002"/>
<polygon fill="#000000" stroke="#000000" points="594.5549,-920.8473 596.3176,-910.4001 588.4247,-917.4678 594.5549,-920.8473"/>
</g>
<!-- DocalignSMT -->
<g id="node5" class="node">
<title>DocalignSMT</title>
<ellipse fill="none" stroke="#000000" cx="69.2965" cy="-864.829" rx="69.0935" ry="58.8803"/>
<text text-anchor="middle" x="69.2965" y="-891.129" font-family="Times,serif" font-size="14.00" fill="#000000">Docalign SMT</text>
<text text-anchor="middle" x="69.2965" y="-876.129" font-family="Times,serif" font-size="14.00" fill="#000000">&#45;doc_threshold</text>
<text text-anchor="middle" x="69.2965" y="-861.129" font-family="Times,serif" font-size="14.00" fill="#000000">&#45;wordtok1</text>
<text text-anchor="middle" x="69.2965" y="-846.129" font-family="Times,serif" font-size="14.00" fill="#000000">&#45;mosesdir</text>
<text text-anchor="middle" x="69.2965" y="-831.129" font-family="Times,serif" font-size="14.00" fill="#000000">&#45;model</text>
</g>
<!-- LETT&#45;&gt;DocalignSMT -->
<g id="edge4" class="edge">
<title>LETT&#45;&gt;DocalignSMT</title>
<path fill="none" stroke="#000000" d="M263.7637,-1070.576C232.0283,-1053.2411 182.2076,-1022.9701 147.2965,-987.1585 130.2198,-969.6414 114.8733,-947.8079 102.4023,-927.4547"/>
<polygon fill="#000000" stroke="#000000" points="105.381,-925.6163 97.237,-918.8395 99.3774,-929.2159 105.381,-925.6163"/>
</g>
<!-- DocalignNMT -->
<g id="node6" class="node">
<title>DocalignNMT</title>
<ellipse fill="none" stroke="#000000" cx="451.2965" cy="-864.829" rx="83.3772" ry="122.1592"/>
<text text-anchor="middle" x="451.2965" y="-936.129" font-family="Times,serif" font-size="14.00" fill="#000000">Docalign NMT</text>
<text text-anchor="middle" x="451.2965" y="-921.129" font-family="Times,serif" font-size="14.00" fill="#000000">&#45;doc_threshold</text>
<text text-anchor="middle" x="451.2965" y="-906.129" font-family="Times,serif" font-size="14.00" fill="#000000">&#45;wordtok1</text>
<text text-anchor="middle" x="451.2965" y="-891.129" font-family="Times,serif" font-size="14.00" fill="#000000">&#45;mariandir</text>
<text text-anchor="middle" x="451.2965" y="-876.129" font-family="Times,serif" font-size="14.00" fill="#000000">&#45;mosesdir</text>
<text text-anchor="middle" x="451.2965" y="-861.129" font-family="Times,serif" font-size="14.00" fill="#000000">&#45;subword_nmt_dir</text>
<text text-anchor="middle" x="451.2965" y="-846.129" font-family="Times,serif" font-size="14.00" fill="#000000">&#45;detok2</text>
<text text-anchor="middle" x="451.2965" y="-831.129" font-family="Times,serif" font-size="14.00" fill="#000000">&#45;gpuid</text>
<text text-anchor="middle" x="451.2965" y="-816.129" font-family="Times,serif" font-size="14.00" fill="#000000">&#45;marian_args</text>
<text text-anchor="middle" x="451.2965" y="-801.129" font-family="Times,serif" font-size="14.00" fill="#000000">&#45;wordtok1</text>
<text text-anchor="middle" x="451.2965" y="-786.129" font-family="Times,serif" font-size="14.00" fill="#000000">&#45;wordtok2</text>
</g>
<!-- LETT&#45;&gt;DocalignNMT -->
<g id="edge5" class="edge">
<title>LETT&#45;&gt;DocalignNMT</title>
<path fill="none" stroke="#000000" d="M311.3971,-1062.1252C329.1668,-1037.0651 358.0961,-996.2669 385.0495,-958.2553"/>
<polygon fill="#000000" stroke="#000000" points="388.1962,-959.8686 391.1254,-949.6867 382.486,-955.8196 388.1962,-959.8686"/>
</g>
<!-- DocalignCustomMT -->
<g id="node7" class="node">
<title>DocalignCustomMT</title>
<ellipse fill="none" stroke="#000000" cx="253.2965" cy="-864.829" rx="96.7474" ry="48.1667"/>
<text text-anchor="middle" x="253.2965" y="-883.629" font-family="Times,serif" font-size="14.00" fill="#000000">Docalign Custom MT</text>
<text text-anchor="middle" x="253.2965" y="-868.629" font-family="Times,serif" font-size="14.00" fill="#000000">&#45;doc_threshold</text>
<text text-anchor="middle" x="253.2965" y="-853.629" font-family="Times,serif" font-size="14.00" fill="#000000">&#45;mt_command</text>
<text text-anchor="middle" x="253.2965" y="-838.629" font-family="Times,serif" font-size="14.00" fill="#000000">&#45;wordtok1</text>
</g>
<!-- LETT&#45;&gt;DocalignCustomMT -->
<g id="edge6" class="edge">
<title>LETT&#45;&gt;DocalignCustomMT</title>
<path fill="none" stroke="#000000" d="M289.3509,-1059.5342C283.1268,-1025.9219 272.2618,-967.248 264.0816,-923.0719"/>
<polygon fill="#000000" stroke="#000000" points="267.4846,-922.2267 262.2223,-913.0312 260.6017,-923.5013 267.4846,-922.2267"/>
</g>
<!-- Docalign -->
<g id="node11" class="node">
<title>Docalign</title>
<ellipse fill="none" stroke="#000000" stroke-dasharray="5,2" cx="422.2965" cy="-673.4996" rx="42.7926" ry="18"/>
<text text-anchor="middle" x="422.2965" y="-669.7996" font-family="Times,serif" font-size="14.00" fill="#000000">Docalign</text>
</g>
<!-- DocalignDict&#45;&gt;Docalign -->
<g id="edge11" class="edge">
<title>DocalignDict&#45;&gt;Docalign</title>
<path fill="none" stroke="#000000" d="M597.3585,-819.1268C584.3618,-794.315 565.8409,-764.3396 543.2965,-742.4996 520.0406,-719.9704 488.0113,-702.1325 462.7478,-690.2416"/>
<polygon fill="#000000" stroke="#000000" points="463.9787,-686.9559 453.429,-685.9781 461.0663,-693.3213 463.9787,-686.9559"/>
</g>
<!-- DocalignSMT&#45;&gt;Docalign -->
<g id="edge12" class="edge">
<title>DocalignSMT&#45;&gt;Docalign</title>
<path fill="none" stroke="#000000" d="M92.6711,-809.5661C105.4766,-785.5687 123.6213,-759.188 147.2965,-742.4996 188.8464,-713.2113 321.4277,-705.5011 370.2965,-691.4996 373.4649,-690.5918 376.7237,-689.6017 379.9911,-688.5681"/>
<polygon fill="#000000" stroke="#000000" points="381.3235,-691.8147 389.7367,-685.3752 379.144,-685.1626 381.3235,-691.8147"/>
</g>
<!-- DocalignMT -->
<g id="node12" class="node">
<title>DocalignMT</title>
<ellipse fill="none" stroke="#000000" stroke-dasharray="5,2" cx="302.2965" cy="-673.4996" rx="59.2899" ry="18"/>
<text text-anchor="middle" x="302.2965" y="-669.7996" font-family="Times,serif" font-size="14.00" fill="#000000">Docalign MT</text>
</g>
<!-- DocalignSMT&#45;&gt;DocalignMT -->
<g id="edge15" class="edge">
<title>DocalignSMT&#45;&gt;DocalignMT</title>
<path fill="none" stroke="#000000" d="M94.1284,-809.8815C112.8957,-775.0724 142.1376,-732.4344 181.2965,-709.4996 199.7431,-698.6957 221.6985,-690.8985 241.8111,-685.3852"/>
<polygon fill="#000000" stroke="#000000" points="242.7177,-688.7659 251.513,-682.859 240.9538,-681.9918 242.7177,-688.7659"/>
</g>
<!-- DocalignNMT&#45;&gt;Docalign -->
<g id="edge13" class="edge">
<title>DocalignNMT&#45;&gt;Docalign</title>
<path fill="none" stroke="#000000" d="M433.1775,-745.288C430.7157,-729.0462 428.4026,-713.7854 426.5475,-701.546"/>
<polygon fill="#000000" stroke="#000000" points="430.002,-700.9818 425.0429,-691.6192 423.0811,-702.0309 430.002,-700.9818"/>
</g>
<!-- DocalignNMT&#45;&gt;DocalignMT -->
<g id="edge16" class="edge">
<title>DocalignNMT&#45;&gt;DocalignMT</title>
<path fill="none" stroke="#000000" d="M389.6976,-781.8556C379.6376,-768.6146 369.2502,-755.1247 359.2965,-742.4996 347.8539,-727.9861 334.7392,-712.0637 323.9765,-699.1747"/>
<polygon fill="#000000" stroke="#000000" points="326.3899,-696.6053 317.2847,-691.1881 321.0244,-701.101 326.3899,-696.6053"/>
</g>
<!-- DocalignCustomMT&#45;&gt;Docalign -->
<g id="edge14" class="edge">
<title>DocalignCustomMT&#45;&gt;Docalign</title>
<path fill="none" stroke="#000000" d="M291.2911,-820.4224C311.3686,-797.0991 336.5105,-768.1159 359.2965,-742.4996 372.51,-727.6448 387.5116,-711.1982 399.5604,-698.0888"/>
<polygon fill="#000000" stroke="#000000" points="402.4396,-700.129 406.6386,-690.4018 397.2901,-695.3874 402.4396,-700.129"/>
</g>
<!-- DocalignCustomMT&#45;&gt;DocalignMT -->
<g id="edge17" class="edge">
<title>DocalignCustomMT&#45;&gt;DocalignMT</title>
<path fill="none" stroke="#000000" d="M265.5348,-817.0421C274.8662,-780.6061 287.3949,-731.6855 295.1521,-701.3959"/>
<polygon fill="#000000" stroke="#000000" points="298.5935,-702.0659 297.6839,-691.5101 291.8123,-700.3291 298.5935,-702.0659"/>
</g>
<!-- TrainSMT -->
<g id="node8" class="node">
<title>TrainSMT</title>
<ellipse fill="none" stroke="#000000" cx="69.2965" cy="-1086.2418" rx="56.6372" ry="48.1667"/>
<text text-anchor="middle" x="69.2965" y="-1105.0418" font-family="Times,serif" font-size="14.00" fill="#000000">Train SMT</text>
<text text-anchor="middle" x="69.2965" y="-1090.0418" font-family="Times,serif" font-size="14.00" fill="#000000">&#45;dev corpus</text>
<text text-anchor="middle" x="69.2965" y="-1075.0418" font-family="Times,serif" font-size="14.00" fill="#000000">&#45;test corpus</text>
<text text-anchor="middle" x="69.2965" y="-1060.0418" font-family="Times,serif" font-size="14.00" fill="#000000">&#45;crawl</text>
</g>
<!-- TrainSMT&#45;&gt;DocalignSMT -->
<g id="edge9" class="edge">
<title>TrainSMT&#45;&gt;DocalignSMT</title>
<path fill="none" stroke="#000000" stroke-dasharray="1,5" d="M69.2965,-1037.9254C69.2965,-1007.4826 69.2965,-967.6942 69.2965,-933.9417"/>
<polygon fill="#000000" stroke="#000000" points="72.7966,-933.6775 69.2965,-923.6775 65.7966,-933.6776 72.7966,-933.6775"/>
<text text-anchor="middle" x="89.2965" y="-1008.9585" font-family="Times,serif" font-size="14.00" fill="#000000">!model</text>
</g>
<!-- TrainNMT -->
<g id="node9" class="node">
<title>TrainNMT</title>
<ellipse fill="none" stroke="#000000" cx="451.2965" cy="-1086.2418" rx="60.623" ry="48.1667"/>
<text text-anchor="middle" x="451.2965" y="-1105.0418" font-family="Times,serif" font-size="14.00" fill="#000000">Train NMT</text>
<text text-anchor="middle" x="451.2965" y="-1090.0418" font-family="Times,serif" font-size="14.00" fill="#000000">&#45;train corpus</text>
<text text-anchor="middle" x="451.2965" y="-1075.0418" font-family="Times,serif" font-size="14.00" fill="#000000">&#45;test corpus</text>
<text text-anchor="middle" x="451.2965" y="-1060.0418" font-family="Times,serif" font-size="14.00" fill="#000000">&#45;dev corpus</text>
</g>
<!-- TrainNMT&#45;&gt;DocalignNMT -->
<g id="edge10" class="edge">
<title>TrainNMT&#45;&gt;DocalignNMT</title>
<path fill="none" stroke="#000000" stroke-dasharray="1,5" d="M451.2965,-1037.9254C451.2965,-1025.7409 451.2965,-1012.0593 451.2965,-997.8668"/>
<polygon fill="#000000" stroke="#000000" points="454.7966,-997.4563 451.2965,-987.4563 447.7966,-997.4563 454.7966,-997.4563"/>
<text text-anchor="middle" x="471.2965" y="-1008.9585" font-family="Times,serif" font-size="14.00" fill="#000000">!model</text>
</g>
<!-- SymmetriseDic -->
<g id="node10" class="node">
<title>SymmetriseDic</title>
<ellipse fill="none" stroke="#000000" cx="687.2965" cy="-1086.2418" rx="79.8062" ry="26.7407"/>
<text text-anchor="middle" x="687.2965" y="-1090.0418" font-family="Times,serif" font-size="14.00" fill="#000000">Symmetrise Dict.</text>
<text text-anchor="middle" x="687.2965" y="-1075.0418" font-family="Times,serif" font-size="14.00" fill="#000000">&#45;corpus_dict</text>
</g>
<!-- SymmetriseDic&#45;&gt;DocalignDict -->
<g id="edge7" class="edge">
<title>SymmetriseDic&#45;&gt;DocalignDict</title>
<path fill="none" stroke="#000000" stroke-dasharray="1,5" d="M678.8357,-1059.0922C668.2302,-1025.0603 649.7758,-965.8424 636.0221,-921.7086"/>
<polygon fill="#000000" stroke="#000000" points="639.3044,-920.4771 632.9876,-911.9713 632.6214,-922.5598 639.3044,-920.4771"/>
<text text-anchor="middle" x="676.7965" y="-1008.9585" font-family="Times,serif" font-size="14.00" fill="#000000">!dict</text>
</g>
<!-- Hunalign -->
<g id="node13" class="node">
<title>Hunalign</title>
<ellipse fill="none" stroke="#000000" cx="421.2965" cy="-549.2031" rx="51.7379" ry="69.0935"/>
<text text-anchor="middle" x="421.2965" y="-583.0031" font-family="Times,serif" font-size="14.00" fill="#000000">Hunalign</text>
<text text-anchor="middle" x="421.2965" y="-568.0031" font-family="Times,serif" font-size="14.00" fill="#000000">&#45;dict</text>
<text text-anchor="middle" x="421.2965" y="-553.0031" font-family="Times,serif" font-size="14.00" fill="#000000">&#45;wordtok1</text>
<text text-anchor="middle" x="421.2965" y="-538.0031" font-family="Times,serif" font-size="14.00" fill="#000000">&#45;wordtok2</text>
<text text-anchor="middle" x="421.2965" y="-523.0031" font-family="Times,serif" font-size="14.00" fill="#000000">&#45;senttok1</text>
<text text-anchor="middle" x="421.2965" y="-508.0031" font-family="Times,serif" font-size="14.00" fill="#000000">&#45;senttok2</text>
</g>
<!-- SymmetriseDic&#45;&gt;Hunalign -->
<g id="edge8" class="edge">
<title>SymmetriseDic&#45;&gt;Hunalign</title>
<path fill="none" stroke="#000000" stroke-dasharray="1,5" d="M695.8919,-1059.32C713.5879,-998.7117 748.0474,-848.5763 693.2965,-742.4996 648.8508,-656.3886 546.3582,-600.2821 480.6517,-571.7344"/>
<polygon fill="#000000" stroke="#000000" points="481.8072,-568.4223 471.2355,-567.7221 479.0631,-574.8621 481.8072,-568.4223"/>
<text text-anchor="middle" x="693.7965" y="-713.2996" font-family="Times,serif" font-size="14.00" fill="#000000">!dict</text>
</g>
<!-- Docalign&#45;&gt;Hunalign -->
<g id="edge18" class="edge">
<title>Docalign&#45;&gt;Hunalign</title>
<path fill="none" stroke="#000000" d="M422.1511,-655.4258C422.0905,-647.9016 422.0157,-638.6016 421.9357,-628.6595"/>
<polygon fill="#000000" stroke="#000000" points="425.4348,-628.5168 421.8543,-618.5453 418.435,-628.5732 425.4348,-628.5168"/>
</g>
<!-- DocalignMT&#45;&gt;Hunalign -->
<g id="edge19" class="edge">
<title>DocalignMT&#45;&gt;Hunalign</title>
<path fill="none" stroke="#000000" d="M321.6534,-656.4128C333.414,-645.7995 348.5652,-631.7069 361.2965,-618.4996 366.0455,-613.573 370.8919,-608.3463 375.6691,-603.0594"/>
<polygon fill="#000000" stroke="#000000" points="378.5495,-605.0885 382.5992,-595.2982 373.3281,-600.4262 378.5495,-605.0885"/>
</g>
<!-- Bleualign -->
<g id="node14" class="node">
<title>Bleualign</title>
<ellipse fill="none" stroke="#000000" cx="303.2965" cy="-549.2031" rx="48.5816" ry="26.7407"/>
<text text-anchor="middle" x="303.2965" y="-553.0031" font-family="Times,serif" font-size="14.00" fill="#000000">Bleualign</text>
<text text-anchor="middle" x="303.2965" y="-538.0031" font-family="Times,serif" font-size="14.00" fill="#000000">&#45;matches</text>
</g>
<!-- DocalignMT&#45;&gt;Bleualign -->
<g id="edge20" class="edge">
<title>DocalignMT&#45;&gt;Bleualign</title>
<path fill="none" stroke="#000000" d="M302.4419,-655.4258C302.5866,-637.4422 302.8129,-609.3144 302.9962,-586.5202"/>
<polygon fill="#000000" stroke="#000000" points="306.4964,-586.506 303.077,-576.4781 299.4966,-586.4496 306.4964,-586.506"/>
</g>
<!-- Segclean -->
<g id="node15" class="node">
<title>Segclean</title>
<ellipse fill="none" stroke="#000000" cx="373.2965" cy="-405.43" rx="70.922" ry="37.4533"/>
<text text-anchor="middle" x="373.2965" y="-416.73" font-family="Times,serif" font-size="14.00" fill="#000000">Segment Clean</text>
<text text-anchor="middle" x="373.2965" y="-401.73" font-family="Times,serif" font-size="14.00" fill="#000000">&#45;min_quality</text>
<text text-anchor="middle" x="373.2965" y="-386.73" font-family="Times,serif" font-size="14.00" fill="#000000">&#45;max_lines</text>
</g>
<!-- Hunalign&#45;&gt;Segclean -->
<g id="edge22" class="edge">
<title>Hunalign&#45;&gt;Segclean</title>
<path fill="none" stroke="#000000" stroke-dasharray="5,2" d="M400.1032,-485.7236C396.3345,-474.4353 392.4722,-462.8665 388.8949,-452.1515"/>
<polygon fill="#000000" stroke="#000000" points="392.1873,-450.9606 385.7006,-442.5836 385.5475,-453.1774 392.1873,-450.9606"/>
</g>
<!-- Bleualign&#45;&gt;Segclean -->
<g id="edge23" class="edge">
<title>Bleualign&#45;&gt;Segclean</title>
<path fill="none" stroke="#000000" stroke-dasharray="5,2" d="M315.9729,-523.1669C325.7466,-503.0928 339.5061,-474.832 351.0948,-451.0301"/>
<polygon fill="#000000" stroke="#000000" points="354.3498,-452.3398 355.5806,-441.8167 348.0562,-449.2755 354.3498,-452.3398"/>
</g>
<!-- Bicleaner -->
<g id="node16" class="node">
<title>Bicleaner</title>
<ellipse fill="none" stroke="#000000" cx="295.2965" cy="-279.4767" rx="50.41" ry="37.4533"/>
<text text-anchor="middle" x="295.2965" y="-290.7767" font-family="Times,serif" font-size="14.00" fill="#000000">Bicleaner</text>
<text text-anchor="middle" x="295.2965" y="-275.7767" font-family="Times,serif" font-size="14.00" fill="#000000">&#45;config</text>
<text text-anchor="middle" x="295.2965" y="-260.7767" font-family="Times,serif" font-size="14.00" fill="#000000">&#45;threshold</text>
</g>
<!-- Segclean&#45;&gt;Bicleaner -->
<g id="edge29" class="edge">
<title>Segclean&#45;&gt;Bicleaner</title>
<path fill="none" stroke="#000000" d="M351.1534,-369.6737C342.0421,-354.9608 331.4107,-337.7935 321.8829,-322.4081"/>
<polygon fill="#000000" stroke="#000000" points="324.6611,-320.2464 316.4205,-313.5874 318.7098,-323.9319 324.6611,-320.2464"/>
</g>
<!-- ELRC -->
<g id="node18" class="node">
<title>ELRC</title>
<ellipse fill="none" stroke="#000000" cx="332.2965" cy="-187" rx="33.2948" ry="18"/>
<text text-anchor="middle" x="332.2965" y="-183.3" font-family="Times,serif" font-size="14.00" fill="#000000">ELRC</text>
</g>
<!-- Segclean&#45;&gt;ELRC -->
<g id="edge27" class="edge">
<title>Segclean&#45;&gt;ELRC</title>
<path fill="none" stroke="#000000" stroke-dasharray="5,2" d="M371.7566,-367.9247C369.7197,-334.4667 365.0293,-284.3651 354.2965,-242 351.9109,-232.5838 348.2909,-222.6288 344.672,-213.8144"/>
<polygon fill="#000000" stroke="#000000" points="347.8092,-212.2493 340.6525,-204.4369 341.3753,-215.0071 347.8092,-212.2493"/>
</g>
<!-- Preproc -->
<g id="node19" class="node">
<title>Preproc</title>
<ellipse fill="none" stroke="#000000" stroke-dasharray="5,2" cx="271.2965" cy="-114" rx="38.1938" ry="18"/>
<text text-anchor="middle" x="271.2965" y="-110.3" font-family="Times,serif" font-size="14.00" fill="#000000">Preproc</text>
</g>
<!-- Segclean&#45;&gt;Preproc -->
<g id="edge24" class="edge">
<title>Segclean&#45;&gt;Preproc</title>
<path fill="none" stroke="#000000" stroke-dasharray="5,2" d="M321.1054,-380.1346C311.9044,-375.9183 302.3684,-371.7018 293.2965,-367.9533 271.4681,-358.934 258.8191,-367.7543 243.2965,-349.9533 191.5536,-290.6156 232.5229,-188.6113 256.7262,-140.5369"/>
<polygon fill="#000000" stroke="#000000" points="259.9667,-141.8903 261.454,-131.4003 253.7497,-138.6732 259.9667,-141.8903"/>
</g>
<!-- Bicleaner&#45;&gt;ELRC -->
<g id="edge28" class="edge">
<title>Bicleaner&#45;&gt;ELRC</title>
<path fill="none" stroke="#000000" stroke-dasharray="5,2" d="M309.7076,-243.458C313.6117,-233.7002 317.7715,-223.3031 321.4436,-214.1254"/>
<polygon fill="#000000" stroke="#000000" points="324.7363,-215.3176 325.2015,-204.733 318.2372,-212.7172 324.7363,-215.3176"/>
</g>
<!-- Bicleaner&#45;&gt;Preproc -->
<g id="edge25" class="edge">
<title>Bicleaner&#45;&gt;Preproc</title>
<path fill="none" stroke="#000000" stroke-dasharray="5,2" d="M289.8505,-241.9274C285.4551,-211.6219 279.3675,-169.6486 275.382,-142.1693"/>
<polygon fill="#000000" stroke="#000000" points="278.8141,-141.4476 273.9149,-132.0536 271.8865,-142.4524 278.8141,-141.4476"/>
</g>
<!-- BicleanerTrain -->
<g id="node17" class="node">
<title>BicleanerTrain</title>
<ellipse fill="none" stroke="#000000" cx="204.2965" cy="-405.43" rx="79.8062" ry="26.7407"/>
<text text-anchor="middle" x="204.2965" y="-409.23" font-family="Times,serif" font-size="14.00" fill="#000000">Bicleaner Train</text>
<text text-anchor="middle" x="204.2965" y="-394.23" font-family="Times,serif" font-size="14.00" fill="#000000">&#45;corpus_bicleaner</text>
</g>
<!-- BicleanerTrain&#45;&gt;Bicleaner -->
<g id="edge21" class="edge">
<title>BicleanerTrain&#45;&gt;Bicleaner</title>
<path fill="none" stroke="#000000" stroke-dasharray="1,5" d="M223.373,-379.026C235.54,-362.1857 251.5647,-340.006 265.3995,-320.8571"/>
<polygon fill="#000000" stroke="#000000" points="268.3586,-322.7378 271.378,-312.5823 262.6846,-318.6383 268.3586,-322.7378"/>
<text text-anchor="middle" x="273.2965" y="-338.7533" font-family="Times,serif" font-size="14.00" fill="#000000">!config</text>
</g>
<!-- ELRC&#45;&gt;Preproc -->
<g id="edge26" class="edge">
<title>ELRC&#45;&gt;Preproc</title>
<path fill="none" stroke="#000000" stroke-dasharray="5,2" d="M318.4546,-170.4352C310.6883,-161.1411 300.8434,-149.3595 292.1599,-138.9678"/>
<polygon fill="#000000" stroke="#000000" points="294.6048,-136.4352 285.5068,-131.0059 289.2333,-140.9238 294.6048,-136.4352"/>
</g>
<!-- Sents -->
<g id="node20" class="node">
<title>Sents</title>
<ellipse fill="none" stroke="#000000" cx="193.2965" cy="-41" rx="29.795" ry="18"/>
<text text-anchor="middle" x="193.2965" y="-37.3" font-family="Times,serif" font-size="14.00" fill="#000000">Sents</text>
</g>
<!-- Preproc&#45;&gt;Sents -->
<g id="edge30" class="edge">
<title>Preproc&#45;&gt;Sents</title>
<path fill="none" stroke="#000000" d="M253.9857,-97.7989C243.0879,-87.5997 228.8771,-74.2998 216.9466,-63.1341"/>
<polygon fill="#000000" stroke="#000000" points="219.1865,-60.4367 209.4936,-56.1589 214.4032,-65.5475 219.1865,-60.4367"/>
</g>
<!-- TMX -->
<g id="node21" class="node">
<title>TMX</title>
<ellipse fill="none" stroke="#000000" cx="271.2965" cy="-41" rx="30.5947" ry="18"/>
<text text-anchor="middle" x="271.2965" y="-37.3" font-family="Times,serif" font-size="14.00" fill="#000000">TMX</text>
</g>
<!-- Preproc&#45;&gt;TMX -->
<g id="edge31" class="edge">
<title>Preproc&#45;&gt;TMX</title>
<path fill="none" stroke="#000000" d="M271.2965,-95.9551C271.2965,-87.8828 271.2965,-78.1764 271.2965,-69.1817"/>
<polygon fill="#000000" stroke="#000000" points="274.7966,-69.0903 271.2965,-59.0904 267.7966,-69.0904 274.7966,-69.0903"/>
</g>
<!-- DedupTMX -->
<g id="node22" class="node">
<title>DedupTMX</title>
<ellipse fill="none" stroke="#000000" cx="373.2965" cy="-41" rx="53.8905" ry="18"/>
<text text-anchor="middle" x="373.2965" y="-37.3" font-family="Times,serif" font-size="14.00" fill="#000000">DedupTMX</text>
</g>
<!-- Preproc&#45;&gt;DedupTMX -->
<g id="edge32" class="edge">
<title>Preproc&#45;&gt;DedupTMX</title>
<path fill="none" stroke="#000000" d="M292.4309,-98.8744C306.709,-88.6557 325.8091,-74.986 341.8613,-63.4977"/>
<polygon fill="#000000" stroke="#000000" points="344.3206,-66.0417 350.4156,-57.3755 340.2467,-60.3493 344.3206,-66.0417"/>
</g>
</g>
</svg>
