<?xml version="1.0" encoding="UTF-8" standalone="no"?>
<!DOCTYPE svg PUBLIC "-//W3C//DTD SVG 1.1//EN"
 "http://www.w3.org/Graphics/SVG/1.1/DTD/svg11.dtd">
<!-- Generated by graphviz version 2.40.1 (20161225.0304)
 -->
<!-- Title: Snakemake Pages: 1 -->
<svg width="574pt" height="1043pt"
 viewBox="0.00 0.00 573.50 1043.00" xmlns="http://www.w3.org/2000/svg" xmlns:xlink="http://www.w3.org/1999/xlink">
<g id="graph0" class="graph" transform="scale(1 1) rotate(0) translate(4 1039)">
<title>Snakemake</title>
<polygon fill="#ffffff" stroke="transparent" points="-4,4 -4,-1039 569.5,-1039 569.5,4 -4,4"/>
<text text-anchor="middle" x="282.75" y="-7.8" font-family="Times,serif" font-size="14.00" fill="#000000">Bitextor Snakemake path chart</text>
<!-- Creepy -->
<g id="node1" class="node">
<title>Creepy</title>
<polygon fill="none" stroke="#000000" points="148,-996.5 148,-1034.5 204,-1034.5 204,-996.5 148,-996.5"/>
<text text-anchor="middle" x="176" y="-1019.3" font-family="Times,serif" font-size="14.00" fill="#000000">Creepy</text>
<text text-anchor="middle" x="176" y="-1004.3" font-family="Times,serif" font-size="14.00" fill="#000000">&#45;url</text>
</g>
<!-- LETT -->
<g id="node3" class="node">
<title>LETT</title>
<polygon fill="none" stroke="#000000" points="187,-905.5 187,-943.5 241,-943.5 241,-905.5 187,-905.5"/>
<text text-anchor="middle" x="214" y="-928.3" font-family="Times,serif" font-size="14.00" fill="#000000">LETT</text>
<text text-anchor="middle" x="214" y="-913.3" font-family="Times,serif" font-size="14.00" fill="#000000">&#45;boiler</text>
</g>
<!-- Creepy&#45;&gt;LETT -->
<g id="edge1" class="edge">
<title>Creepy&#45;&gt;LETT</title>
<path fill="none" stroke="#000000" stroke-dasharray="5,2" d="M184.0588,-996.2012C189.2984,-983.6538 196.222,-967.0737 202.0914,-953.018"/>
<polygon fill="#000000" stroke="#000000" points="205.3291,-954.3474 205.9528,-943.7709 198.8697,-951.65 205.3291,-954.3474"/>
</g>
<!-- Httrack -->
<g id="node2" class="node">
<title>Httrack</title>
<polygon fill="none" stroke="#000000" points="222.5,-996.5 222.5,-1034.5 279.5,-1034.5 279.5,-996.5 222.5,-996.5"/>
<text text-anchor="middle" x="251" y="-1019.3" font-family="Times,serif" font-size="14.00" fill="#000000">Httrack</text>
<text text-anchor="middle" x="251" y="-1004.3" font-family="Times,serif" font-size="14.00" fill="#000000">&#45;url</text>
</g>
<!-- Httrack&#45;&gt;LETT -->
<g id="edge2" class="edge">
<title>Httrack&#45;&gt;LETT</title>
<path fill="none" stroke="#000000" stroke-dasharray="5,2" d="M243.1533,-996.2012C238.1006,-983.7744 231.4397,-967.3922 225.7604,-953.4241"/>
<polygon fill="#000000" stroke="#000000" points="228.8442,-951.7162 221.8354,-943.7709 222.3598,-954.3528 228.8442,-951.7162"/>
</g>
<!-- DocalignDict -->
<g id="node4" class="node">
<title>DocalignDict</title>
<polygon fill="none" stroke="#000000" points="408.5,-718 408.5,-786 501.5,-786 501.5,-718 408.5,-718"/>
<text text-anchor="middle" x="455" y="-770.8" font-family="Times,serif" font-size="14.00" fill="#000000">Docalign Dict</text>
<text text-anchor="middle" x="455" y="-755.8" font-family="Times,serif" font-size="14.00" fill="#000000">&#45;dic</text>
<text text-anchor="middle" x="455" y="-740.8" font-family="Times,serif" font-size="14.00" fill="#000000">&#45;wordtok1</text>
<text text-anchor="middle" x="455" y="-725.8" font-family="Times,serif" font-size="14.00" fill="#000000">&#45;wordtok2</text>
</g>
<!-- LETT&#45;&gt;DocalignDict -->
<g id="edge3" class="edge">
<title>LETT&#45;&gt;DocalignDict</title>
<path fill="none" stroke="#000000" d="M241.3135,-907.6321C252.6251,-901.2836 266.0973,-894.5156 279,-890 319.9734,-875.6603 338.3055,-895.1939 375,-872 403.4938,-853.9896 424.1432,-821.7353 437.3184,-795.1993"/>
<polygon fill="#000000" stroke="#000000" points="440.52,-796.6169 441.6676,-786.0844 434.2023,-793.6024 440.52,-796.6169"/>
</g>
<!-- DocalignSMT -->
<g id="node5" class="node">
<title>DocalignSMT</title>
<polygon fill="none" stroke="#000000" points="0,-710.5 0,-793.5 98,-793.5 98,-710.5 0,-710.5"/>
<text text-anchor="middle" x="49" y="-778.3" font-family="Times,serif" font-size="14.00" fill="#000000">Docalign SMT</text>
<text text-anchor="middle" x="49" y="-763.3" font-family="Times,serif" font-size="14.00" fill="#000000">&#45;doc_threshold</text>
<text text-anchor="middle" x="49" y="-748.3" font-family="Times,serif" font-size="14.00" fill="#000000">&#45;wordtok1</text>
<text text-anchor="middle" x="49" y="-733.3" font-family="Times,serif" font-size="14.00" fill="#000000">&#45;mosesdir</text>
<text text-anchor="middle" x="49" y="-718.3" font-family="Times,serif" font-size="14.00" fill="#000000">&#45;model</text>
</g>
<!-- LETT&#45;&gt;DocalignSMT -->
<g id="edge4" class="edge">
<title>LETT&#45;&gt;DocalignSMT</title>
<path fill="none" stroke="#000000" d="M186.5586,-906.1819C163.7027,-890.1204 131.1113,-865.2838 107,-839 96.8302,-827.9138 87.1664,-814.8877 78.7469,-802.3397"/>
<polygon fill="#000000" stroke="#000000" points="81.5332,-800.2059 73.1258,-793.7586 75.6777,-804.0416 81.5332,-800.2059"/>
</g>
<!-- DocalignNMT -->
<g id="node6" class="node">
<title>DocalignNMT</title>
<polygon fill="none" stroke="#000000" points="272,-665.5 272,-838.5 390,-838.5 390,-665.5 272,-665.5"/>
<text text-anchor="middle" x="331" y="-823.3" font-family="Times,serif" font-size="14.00" fill="#000000">Docalign NMT</text>
<text text-anchor="middle" x="331" y="-808.3" font-family="Times,serif" font-size="14.00" fill="#000000">&#45;doc_threshold</text>
<text text-anchor="middle" x="331" y="-793.3" font-family="Times,serif" font-size="14.00" fill="#000000">&#45;wordtok1</text>
<text text-anchor="middle" x="331" y="-778.3" font-family="Times,serif" font-size="14.00" fill="#000000">&#45;mariandir</text>
<text text-anchor="middle" x="331" y="-763.3" font-family="Times,serif" font-size="14.00" fill="#000000">&#45;mosesdir</text>
<text text-anchor="middle" x="331" y="-748.3" font-family="Times,serif" font-size="14.00" fill="#000000">&#45;subword_nmt_dir</text>
<text text-anchor="middle" x="331" y="-733.3" font-family="Times,serif" font-size="14.00" fill="#000000">&#45;detok2</text>
<text text-anchor="middle" x="331" y="-718.3" font-family="Times,serif" font-size="14.00" fill="#000000">&#45;gpuid</text>
<text text-anchor="middle" x="331" y="-703.3" font-family="Times,serif" font-size="14.00" fill="#000000">&#45;marian_args</text>
<text text-anchor="middle" x="331" y="-688.3" font-family="Times,serif" font-size="14.00" fill="#000000">&#45;wordtok1</text>
<text text-anchor="middle" x="331" y="-673.3" font-family="Times,serif" font-size="14.00" fill="#000000">&#45;wordtok2</text>
</g>
<!-- LETT&#45;&gt;DocalignNMT -->
<g id="edge5" class="edge">
<title>LETT&#45;&gt;DocalignNMT</title>
<path fill="none" stroke="#000000" d="M226.9681,-905.3804C236.8864,-890.7572 251.3745,-869.3966 266.4052,-847.236"/>
<polygon fill="#000000" stroke="#000000" points="269.4673,-848.9565 272.184,-838.7159 263.6741,-845.0272 269.4673,-848.9565"/>
</g>
<!-- DocalignCustomMT -->
<g id="node7" class="node">
<title>DocalignCustomMT</title>
<polygon fill="none" stroke="#000000" points="116.5,-718 116.5,-786 253.5,-786 253.5,-718 116.5,-718"/>
<text text-anchor="middle" x="185" y="-770.8" font-family="Times,serif" font-size="14.00" fill="#000000">Docalign Custom MT</text>
<text text-anchor="middle" x="185" y="-755.8" font-family="Times,serif" font-size="14.00" fill="#000000">&#45;doc_threshold</text>
<text text-anchor="middle" x="185" y="-740.8" font-family="Times,serif" font-size="14.00" fill="#000000">&#45;mt_command</text>
<text text-anchor="middle" x="185" y="-725.8" font-family="Times,serif" font-size="14.00" fill="#000000">&#45;wordtok1</text>
</g>
<!-- LETT&#45;&gt;DocalignCustomMT -->
<g id="edge6" class="edge">
<title>LETT&#45;&gt;DocalignCustomMT</title>
<path fill="none" stroke="#000000" d="M210.7857,-905.3804C206.3832,-879.1933 198.3483,-831.3994 192.4136,-796.0979"/>
<polygon fill="#000000" stroke="#000000" points="195.8325,-795.3231 190.723,-786.0418 188.9294,-796.4837 195.8325,-795.3231"/>
</g>
<!-- Docalign -->
<g id="node11" class="node">
<title>Docalign</title>
<polygon fill="none" stroke="#000000" stroke-dasharray="5,2" points="262,-577.5 262,-613.5 328,-613.5 328,-577.5 262,-577.5"/>
<text text-anchor="middle" x="295" y="-591.8" font-family="Times,serif" font-size="14.00" fill="#000000">Docalign</text>
</g>
<!-- DocalignDict&#45;&gt;Docalign -->
<g id="edge11" class="edge">
<title>DocalignDict&#45;&gt;Docalign</title>
<path fill="none" stroke="#000000" d="M437.4166,-717.8668C427.58,-700.7842 414.2362,-680.5004 399,-665 380.8328,-646.5178 357.0029,-630.1639 336.7378,-617.9704"/>
<polygon fill="#000000" stroke="#000000" points="338.3998,-614.8875 328.0053,-612.8371 334.8524,-620.9221 338.3998,-614.8875"/>
</g>
<!-- DocalignSMT&#45;&gt;Docalign -->
<g id="edge12" class="edge">
<title>DocalignSMT&#45;&gt;Docalign</title>
<path fill="none" stroke="#000000" d="M69.2051,-710.4313C78.7614,-694.3723 91.5052,-677.0114 107,-665 158.883,-624.7808 186.5097,-637.8583 252.1138,-614.0903"/>
<polygon fill="#000000" stroke="#000000" points="253.5196,-617.3005 261.6294,-610.4826 251.038,-610.7551 253.5196,-617.3005"/>
</g>
<!-- DocalignMT -->
<g id="node12" class="node">
<title>DocalignMT</title>
<polygon fill="none" stroke="#000000" stroke-dasharray="5,2" points="152.5,-577.5 152.5,-613.5 243.5,-613.5 243.5,-577.5 152.5,-577.5"/>
<text text-anchor="middle" x="198" y="-591.8" font-family="Times,serif" font-size="14.00" fill="#000000">Docalign MT</text>
</g>
<!-- DocalignSMT&#45;&gt;DocalignMT -->
<g id="edge15" class="edge">
<title>DocalignSMT&#45;&gt;DocalignMT</title>
<path fill="none" stroke="#000000" d="M70.4601,-710.2772C84.9494,-685.1903 105.9684,-653.9726 131,-632 136.4752,-627.1939 142.6903,-622.7682 149.0747,-618.7812"/>
<polygon fill="#000000" stroke="#000000" points="150.9928,-621.7135 157.8321,-613.6219 147.4395,-615.6824 150.9928,-621.7135"/>
</g>
<!-- DocalignNMT&#45;&gt;Docalign -->
<g id="edge13" class="edge">
<title>DocalignNMT&#45;&gt;Docalign</title>
<path fill="none" stroke="#000000" d="M310.9998,-665.0546C307.5551,-650.08 304.2094,-635.5355 301.4757,-623.6514"/>
<polygon fill="#000000" stroke="#000000" points="304.8047,-622.5101 299.1519,-613.5492 297.9828,-624.0794 304.8047,-622.5101"/>
</g>
<!-- DocalignNMT&#45;&gt;DocalignMT -->
<g id="edge16" class="edge">
<title>DocalignNMT&#45;&gt;DocalignMT</title>
<path fill="none" stroke="#000000" d="M271.6713,-675.3069C268.7665,-671.801 265.8663,-668.3504 263,-665 250.1618,-649.9937 235.1405,-633.8478 222.7741,-620.8987"/>
<polygon fill="#000000" stroke="#000000" points="225.2881,-618.4635 215.8363,-613.6766 220.24,-623.3129 225.2881,-618.4635"/>
</g>
<!-- DocalignCustomMT&#45;&gt;Docalign -->
<g id="edge14" class="edge">
<title>DocalignCustomMT&#45;&gt;Docalign</title>
<path fill="none" stroke="#000000" d="M209.14,-717.6554C229.3678,-688.8768 257.8295,-648.3835 276.344,-622.0424"/>
<polygon fill="#000000" stroke="#000000" points="279.3282,-623.8832 282.2152,-613.6893 273.6013,-619.8579 279.3282,-623.8832"/>
</g>
<!-- DocalignCustomMT&#45;&gt;DocalignMT -->
<g id="edge17" class="edge">
<title>DocalignCustomMT&#45;&gt;DocalignMT</title>
<path fill="none" stroke="#000000" d="M187.8529,-717.6554C190.1915,-689.5024 193.4613,-650.1385 195.6509,-623.7801"/>
<polygon fill="#000000" stroke="#000000" points="199.1491,-623.9447 196.4891,-613.6893 192.1732,-623.3652 199.1491,-623.9447"/>
</g>
<!-- TrainSMT -->
<g id="node8" class="node">
<title>TrainSMT</title>
<polygon fill="none" stroke="#000000" points="9,-890.5 9,-958.5 89,-958.5 89,-890.5 9,-890.5"/>
<text text-anchor="middle" x="49" y="-943.3" font-family="Times,serif" font-size="14.00" fill="#000000">Train SMT</text>
<text text-anchor="middle" x="49" y="-928.3" font-family="Times,serif" font-size="14.00" fill="#000000">&#45;dev corpus</text>
<text text-anchor="middle" x="49" y="-913.3" font-family="Times,serif" font-size="14.00" fill="#000000">&#45;test corpus</text>
<text text-anchor="middle" x="49" y="-898.3" font-family="Times,serif" font-size="14.00" fill="#000000">&#45;crawl</text>
</g>
<!-- TrainSMT&#45;&gt;DocalignSMT -->
<g id="edge9" class="edge">
<title>TrainSMT&#45;&gt;DocalignSMT</title>
<path fill="none" stroke="#000000" stroke-dasharray="1,5" d="M49,-890.4196C49,-865.6718 49,-831.7452 49,-803.6743"/>
<polygon fill="#000000" stroke="#000000" points="52.5001,-803.6251 49,-793.6251 45.5001,-803.6252 52.5001,-803.6251"/>
<text text-anchor="middle" x="69" y="-860.8" font-family="Times,serif" font-size="14.00" fill="#000000">!model</text>
</g>
<!-- TrainNMT -->
<g id="node9" class="node">
<title>TrainNMT</title>
<polygon fill="none" stroke="#000000" points="288,-890.5 288,-958.5 374,-958.5 374,-890.5 288,-890.5"/>
<text text-anchor="middle" x="331" y="-943.3" font-family="Times,serif" font-size="14.00" fill="#000000">Train NMT</text>
<text text-anchor="middle" x="331" y="-928.3" font-family="Times,serif" font-size="14.00" fill="#000000">&#45;train corpus</text>
<text text-anchor="middle" x="331" y="-913.3" font-family="Times,serif" font-size="14.00" fill="#000000">&#45;test corpus</text>
<text text-anchor="middle" x="331" y="-898.3" font-family="Times,serif" font-size="14.00" fill="#000000">&#45;dev corpus</text>
</g>
<!-- TrainNMT&#45;&gt;DocalignNMT -->
<g id="edge10" class="edge">
<title>TrainNMT&#45;&gt;DocalignNMT</title>
<path fill="none" stroke="#000000" stroke-dasharray="1,5" d="M331,-890.4196C331,-878.2137 331,-863.775 331,-848.9072"/>
<polygon fill="#000000" stroke="#000000" points="334.5001,-848.5678 331,-838.5678 327.5001,-848.5679 334.5001,-848.5678"/>
<text text-anchor="middle" x="351" y="-860.8" font-family="Times,serif" font-size="14.00" fill="#000000">!model</text>
</g>
<!-- SymmetriseDic -->
<g id="node10" class="node">
<title>SymmetriseDic</title>
<polygon fill="none" stroke="#000000" points="452.5,-905.5 452.5,-943.5 565.5,-943.5 565.5,-905.5 452.5,-905.5"/>
<text text-anchor="middle" x="509" y="-928.3" font-family="Times,serif" font-size="14.00" fill="#000000">Symmetrise Dict.</text>
<text text-anchor="middle" x="509" y="-913.3" font-family="Times,serif" font-size="14.00" fill="#000000">&#45;corpus_dict</text>
</g>
<!-- SymmetriseDic&#45;&gt;DocalignDict -->
<g id="edge7" class="edge">
<title>SymmetriseDic&#45;&gt;DocalignDict</title>
<path fill="none" stroke="#000000" stroke-dasharray="1,5" d="M502.152,-905.1127C498.713,-895.2319 494.5369,-883.0083 491,-872 482.9439,-846.9263 474.4551,-818.7263 467.745,-795.9665"/>
<polygon fill="#000000" stroke="#000000" points="471.0667,-794.8557 464.8902,-786.2476 464.3505,-796.8286 471.0667,-794.8557"/>
<text text-anchor="middle" x="503.5" y="-860.8" font-family="Times,serif" font-size="14.00" fill="#000000">!dict</text>
</g>
<!-- Hunalign -->
<g id="node13" class="node">
<title>Hunalign</title>
<polygon fill="none" stroke="#000000" points="254.5,-441.5 254.5,-539.5 327.5,-539.5 327.5,-441.5 254.5,-441.5"/>
<text text-anchor="middle" x="291" y="-524.3" font-family="Times,serif" font-size="14.00" fill="#000000">Hunalign</text>
<text text-anchor="middle" x="291" y="-509.3" font-family="Times,serif" font-size="14.00" fill="#000000">&#45;dict</text>
<text text-anchor="middle" x="291" y="-494.3" font-family="Times,serif" font-size="14.00" fill="#000000">&#45;wordtok1</text>
<text text-anchor="middle" x="291" y="-479.3" font-family="Times,serif" font-size="14.00" fill="#000000">&#45;wordtok2</text>
<text text-anchor="middle" x="291" y="-464.3" font-family="Times,serif" font-size="14.00" fill="#000000">&#45;senttok1</text>
<text text-anchor="middle" x="291" y="-449.3" font-family="Times,serif" font-size="14.00" fill="#000000">&#45;senttok2</text>
</g>
<!-- SymmetriseDic&#45;&gt;Hunalign -->
<g id="edge8" class="edge">
<title>SymmetriseDic&#45;&gt;Hunalign</title>
<path fill="none" stroke="#000000" stroke-dasharray="1,5" d="M514.7478,-905.2674C527.0295,-860.3526 551.5573,-746.2194 511,-665 474.1203,-591.1454 389.7737,-538.6459 336.8906,-511.5638"/>
<polygon fill="#000000" stroke="#000000" points="338.2298,-508.3199 327.7225,-506.9614 335.0893,-514.5759 338.2298,-508.3199"/>
<text text-anchor="middle" x="511.5" y="-635.8" font-family="Times,serif" font-size="14.00" fill="#000000">!dict</text>
</g>
<!-- Docalign&#45;&gt;Hunalign -->
<g id="edge18" class="edge">
<title>Docalign&#45;&gt;Hunalign</title>
<path fill="none" stroke="#000000" d="M294.3033,-577.2104C294.0044,-569.3664 293.6369,-559.7178 293.2567,-549.739"/>
<polygon fill="#000000" stroke="#000000" points="296.7527,-549.5641 292.8745,-539.7047 289.7578,-549.8307 296.7527,-549.5641"/>
</g>
<!-- DocalignMT&#45;&gt;Hunalign -->
<g id="edge19" class="edge">
<title>DocalignMT&#45;&gt;Hunalign</title>
<path fill="none" stroke="#000000" d="M214.1994,-577.2104C223.422,-566.7977 235.4614,-553.2048 247.2627,-539.8809"/>
<polygon fill="#000000" stroke="#000000" points="250.1501,-541.8996 254.1605,-532.093 244.91,-537.2583 250.1501,-541.8996"/>
</g>
<!-- Bleualign -->
<g id="node14" class="node">
<title>Bleualign</title>
<polygon fill="none" stroke="#000000" points="166.5,-471.5 166.5,-509.5 235.5,-509.5 235.5,-471.5 166.5,-471.5"/>
<text text-anchor="middle" x="201" y="-494.3" font-family="Times,serif" font-size="14.00" fill="#000000">Bleualign</text>
<text text-anchor="middle" x="201" y="-479.3" font-family="Times,serif" font-size="14.00" fill="#000000">&#45;matches</text>
</g>
<!-- DocalignMT&#45;&gt;Bleualign -->
<g id="edge20" class="edge">
<title>DocalignMT&#45;&gt;Bleualign</title>
<path fill="none" stroke="#000000" d="M198.5226,-577.2104C198.9744,-561.3949 199.6359,-538.2429 200.1617,-519.8396"/>
<polygon fill="#000000" stroke="#000000" points="203.6659,-519.7401 200.453,-509.6441 196.6688,-519.5401 203.6659,-519.7401"/>
</g>
<!-- Segclean -->
<g id="node15" class="node">
<title>Segclean</title>
<polygon fill="none" stroke="#000000" points="204,-350.5 204,-403.5 304,-403.5 304,-350.5 204,-350.5"/>
<text text-anchor="middle" x="254" y="-388.3" font-family="Times,serif" font-size="14.00" fill="#000000">Segment Clean</text>
<text text-anchor="middle" x="254" y="-373.3" font-family="Times,serif" font-size="14.00" fill="#000000">&#45;min_quality</text>
<text text-anchor="middle" x="254" y="-358.3" font-family="Times,serif" font-size="14.00" fill="#000000">&#45;max_lines</text>
</g>
<!-- Hunalign&#45;&gt;Segclean -->
<g id="edge22" class="edge">
<title>Hunalign&#45;&gt;Segclean</title>
<path fill="none" stroke="#000000" stroke-dasharray="5,2" d="M274.9865,-441.3774C271.9214,-431.975 268.7635,-422.2882 265.8578,-413.3746"/>
<polygon fill="#000000" stroke="#000000" points="269.1297,-412.1186 262.7026,-403.6959 262.4744,-414.2883 269.1297,-412.1186"/>
</g>
<!-- Bleualign&#45;&gt;Segclean -->
<g id="edge23" class="edge">
<title>Bleualign&#45;&gt;Segclean</title>
<path fill="none" stroke="#000000" stroke-dasharray="5,2" d="M209.9907,-471.2463C217.4525,-455.2667 228.2668,-432.1079 237.3078,-412.7466"/>
<polygon fill="#000000" stroke="#000000" points="240.5214,-414.1367 241.5812,-403.595 234.1788,-411.175 240.5214,-414.1367"/>
</g>
<!-- Bicleaner -->
<g id="node16" class="node">
<title>Bicleaner</title>
<polygon fill="none" stroke="#000000" points="154.5,-245.5 154.5,-298.5 225.5,-298.5 225.5,-245.5 154.5,-245.5"/>
<text text-anchor="middle" x="190" y="-283.3" font-family="Times,serif" font-size="14.00" fill="#000000">Bicleaner</text>
<text text-anchor="middle" x="190" y="-268.3" font-family="Times,serif" font-size="14.00" fill="#000000">&#45;config</text>
<text text-anchor="middle" x="190" y="-253.3" font-family="Times,serif" font-size="14.00" fill="#000000">&#45;threshold</text>
</g>
<!-- Segclean&#45;&gt;Bicleaner -->
<g id="edge29" class="edge">
<title>Segclean&#45;&gt;Bicleaner</title>
<path fill="none" stroke="#000000" d="M237.6845,-350.2324C229.7858,-337.2735 220.1932,-321.5357 211.6886,-307.5828"/>
<polygon fill="#000000" stroke="#000000" points="214.479,-305.436 206.2857,-298.7187 208.5018,-309.0792 214.479,-305.436"/>
</g>
<!-- ELRC -->
<g id="node18" class="node">
<title>ELRC</title>
<polygon fill="none" stroke="#000000" points="192,-171.5 192,-207.5 246,-207.5 246,-171.5 192,-171.5"/>
<text text-anchor="middle" x="219" y="-185.8" font-family="Times,serif" font-size="14.00" fill="#000000">ELRC</text>
</g>
<!-- Segclean&#45;&gt;ELRC -->
<g id="edge27" class="edge">
<title>Segclean&#45;&gt;ELRC</title>
<path fill="none" stroke="#000000" stroke-dasharray="5,2" d="M250.8584,-350.2938C247.4966,-323.5161 241.6042,-281.1788 234,-245 232.1112,-236.0137 229.6428,-226.3185 227.2552,-217.5844"/>
<polygon fill="#000000" stroke="#000000" points="230.6016,-216.5549 224.5291,-207.873 223.862,-218.4468 230.6016,-216.5549"/>
</g>
<!-- Preproc -->
<g id="node19" class="node">
<title>Preproc</title>
<polygon fill="none" stroke="#000000" stroke-dasharray="5,2" points="134.5,-97.5 134.5,-133.5 193.5,-133.5 193.5,-97.5 134.5,-97.5"/>
<text text-anchor="middle" x="164" y="-111.8" font-family="Times,serif" font-size="14.00" fill="#000000">Preproc</text>
</g>
<!-- Segclean&#45;&gt;Preproc -->
<g id="edge24" class="edge">
<title>Segclean&#45;&gt;Preproc</title>
<path fill="none" stroke="#000000" stroke-dasharray="5,2" d="M203.9397,-354.392C200.5788,-352.8992 197.2421,-351.4241 194,-350 175.4059,-341.8327 164.8875,-347.6958 152,-332 107.5825,-277.9036 134.0179,-188.1776 151.8147,-143.1167"/>
<polygon fill="#000000" stroke="#000000" points="155.1225,-144.2747 155.67,-133.694 148.6438,-141.6239 155.1225,-144.2747"/>
</g>
<!-- Bicleaner&#45;&gt;ELRC -->
<g id="edge28" class="edge">
<title>Bicleaner&#45;&gt;ELRC</title>
<path fill="none" stroke="#000000" stroke-dasharray="5,2" d="M199.3354,-245.4424C202.4874,-236.4756 206.0138,-226.4435 209.2006,-217.3776"/>
<polygon fill="#000000" stroke="#000000" points="212.6018,-218.2556 212.6162,-207.6608 205.998,-215.9342 212.6018,-218.2556"/>
</g>
<!-- Bicleaner&#45;&gt;Preproc -->
<g id="edge25" class="edge">
<title>Bicleaner&#45;&gt;Preproc</title>
<path fill="none" stroke="#000000" stroke-dasharray="5,2" d="M185.5895,-245.4519C180.8926,-217.1804 173.4881,-172.611 168.6878,-143.7172"/>
<polygon fill="#000000" stroke="#000000" points="172.1386,-143.1317 167.047,-133.8405 165.2333,-144.279 172.1386,-143.1317"/>
</g>
<!-- BicleanerTrain -->
<g id="node17" class="node">
<title>BicleanerTrain</title>
<polygon fill="none" stroke="#000000" points="72.5,-358 72.5,-396 185.5,-396 185.5,-358 72.5,-358"/>
<text text-anchor="middle" x="129" y="-380.8" font-family="Times,serif" font-size="14.00" fill="#000000">Bicleaner Train</text>
<text text-anchor="middle" x="129" y="-365.8" font-family="Times,serif" font-size="14.00" fill="#000000">&#45;corpus_bicleaner</text>
</g>
<!-- BicleanerTrain&#45;&gt;Bicleaner -->
<g id="edge21" class="edge">
<title>BicleanerTrain&#45;&gt;Bicleaner</title>
<path fill="none" stroke="#000000" stroke-dasharray="1,5" d="M140.1883,-357.7414C148.3141,-343.7544 159.5466,-324.4198 169.2887,-307.6506"/>
<polygon fill="#000000" stroke="#000000" points="172.5214,-309.0536 174.5184,-298.6487 166.4687,-305.5372 172.5214,-309.0536"/>
<text text-anchor="middle" x="184" y="-320.8" font-family="Times,serif" font-size="14.00" fill="#000000">!config</text>
</g>
<!-- ELRC&#45;&gt;Preproc -->
<g id="edge26" class="edge">
<title>ELRC&#45;&gt;Preproc</title>
<path fill="none" stroke="#000000" stroke-dasharray="5,2" d="M205.4045,-171.2079C198.8107,-162.3363 190.7697,-151.5174 183.5339,-141.782"/>
<polygon fill="#000000" stroke="#000000" points="186.2135,-139.5199 177.4391,-133.5817 180.5953,-143.6955 186.2135,-139.5199"/>
</g>
<!-- Sents -->
<g id="node20" class="node">
<title>Sents</title>
<path fill="none" stroke="#000000" d="M77,-23.5C77,-23.5 107,-23.5 107,-23.5 113,-23.5 119,-29.5 119,-35.5 119,-35.5 119,-47.5 119,-47.5 119,-53.5 113,-59.5 107,-59.5 107,-59.5 77,-59.5 77,-59.5 71,-59.5 65,-53.5 65,-47.5 65,-47.5 65,-35.5 65,-35.5 65,-29.5 71,-23.5 77,-23.5"/>
<text text-anchor="middle" x="92" y="-37.8" font-family="Times,serif" font-size="14.00" fill="#000000">Sents</text>
</g>
<!-- Preproc&#45;&gt;Sents -->
<g id="edge30" class="edge">
<title>Preproc&#45;&gt;Sents</title>
<path fill="none" stroke="#000000" d="M146.2022,-97.2079C137.3088,-88.0674 126.4042,-76.8599 116.7135,-66.9"/>
<polygon fill="#000000" stroke="#000000" points="119.0752,-64.3083 109.593,-59.5817 114.0581,-69.1898 119.0752,-64.3083"/>
</g>
<!-- TMX -->
<g id="node21" class="node">
<title>TMX</title>
<path fill="none" stroke="#000000" d="M149,-23.5C149,-23.5 179,-23.5 179,-23.5 185,-23.5 191,-29.5 191,-35.5 191,-35.5 191,-47.5 191,-47.5 191,-53.5 185,-59.5 179,-59.5 179,-59.5 149,-59.5 149,-59.5 143,-59.5 137,-53.5 137,-47.5 137,-47.5 137,-35.5 137,-35.5 137,-29.5 143,-23.5 149,-23.5"/>
<text text-anchor="middle" x="164" y="-37.8" font-family="Times,serif" font-size="14.00" fill="#000000">TMX</text>
</g>
<!-- Preproc&#45;&gt;TMX -->
<g id="edge31" class="edge">
<title>Preproc&#45;&gt;TMX</title>
<path fill="none" stroke="#000000" d="M164,-97.2079C164,-88.9635 164,-79.0376 164,-69.8622"/>
<polygon fill="#000000" stroke="#000000" points="167.5001,-69.5817 164,-59.5817 160.5001,-69.5818 167.5001,-69.5817"/>
</g>
<!-- DedupTMX -->
<g id="node22" class="node">
<title>DedupTMX</title>
<path fill="none" stroke="#000000" d="M221.5,-23.5C221.5,-23.5 280.5,-23.5 280.5,-23.5 286.5,-23.5 292.5,-29.5 292.5,-35.5 292.5,-35.5 292.5,-47.5 292.5,-47.5 292.5,-53.5 286.5,-59.5 280.5,-59.5 280.5,-59.5 221.5,-59.5 221.5,-59.5 215.5,-59.5 209.5,-53.5 209.5,-47.5 209.5,-47.5 209.5,-35.5 209.5,-35.5 209.5,-29.5 215.5,-23.5 221.5,-23.5"/>
<text text-anchor="middle" x="251" y="-37.8" font-family="Times,serif" font-size="14.00" fill="#000000">DedupTMX</text>
</g>
<!-- Preproc&#45;&gt;DedupTMX -->
<g id="edge32" class="edge">
<title>Preproc&#45;&gt;DedupTMX</title>
<path fill="none" stroke="#000000" d="M185.5056,-97.2079C196.4625,-87.8882 209.9459,-76.4196 221.8249,-66.3156"/>
<polygon fill="#000000" stroke="#000000" points="224.3922,-68.7268 229.7418,-59.5817 219.8568,-63.3947 224.3922,-68.7268"/>
</g>
</g>
</svg>
